# xmcd
#
# Track frame offsets:
#	150
#	19350
#	35775
#	53925
#	80400
#	95625
#	113625
#	127875
#	145875
#	166650
#
# Disc length: 2542 seconds
#
# Revision: 2
# Processed by: cddbd v1.5.1PL2 Copyright (c) Steve Scherf et al.
# Submitted via: audiograbber 1.83.01
#
DISCID=8109ec0a
DTITLE=Various Artist - Women in love
DYEAR=1996
DGENRE=
TTITLE0=Lulu - Independence
TTITLE1=Monie Love - It's a shame
TTITLE2=Camilla - 50 ways to leave your lover
TTITLE3=Shara Nelson - Goodbye in ten
TTITLE4=Minnie Riperton - Lovin' you
TTITLE5=Mina - Parole parole
TTITLE6=Cher - Sunny
TTITLE7=Kim Wilde - Cambodia
TTITLE8=Stevie Nicks - Rooms on fire
TTITLE9=Adeva - Respect
EXTD=
EXTT0=
EXTT1=
EXTT2=
EXTT3=
EXTT4=
EXTT5=
EXTT6=
EXTT7=
EXTT8=
EXTT9=
PLAYORDER=
